<svg xmlns="http://www.w3.org/2000/svg" xmlns:xlink="http://www.w3.org/1999/xlink" width="26" height="26" viewBox="0 0 26 26"><defs><path id="51zpa" d="M349.047 749.556a.376.376 0 0 1-.376.376h-2.433c-.782 0-1.454.449-1.753 1.171-.3.723-.143 1.516.41 2.069l1.721 1.72a.376.376 0 0 1 0 .531l-2.193 2.193a.376.376 0 0 1-.531 0l-1.72-1.72a1.87 1.87 0 0 0-2.069-.411c-.722.299-1.171.97-1.171 1.753v2.433a.376.376 0 0 1-.376.376h-3.102a.376.376 0 0 1-.376-.376v-2.433c0-.782-.449-1.454-1.171-1.753a1.871 1.871 0 0 0-2.068.41l-1.72 1.721a.376.376 0 0 1-.532 0l-2.193-2.193a.376.376 0 0 1 0-.532l1.72-1.72a1.868 1.868 0 0 0 .411-2.068 1.868 1.868 0 0 0-1.753-1.171h-2.433a.376.376 0 0 1-.376-.376v-3.102c0-.207.169-.376.376-.376h2.433c.782 0 1.454-.449 1.753-1.171.3-.723.143-1.516-.41-2.069l-1.721-1.72a.376.376 0 0 1 0-.531l2.193-2.193a.376.376 0 0 1 .531 0l1.72 1.72a1.869 1.869 0 0 0 2.069.411 1.867 1.867 0 0 0 1.171-1.753v-2.433c0-.207.169-.376.376-.376h3.102c.207 0 .376.169.376.376v2.433c0 .782.449 1.454 1.171 1.753.724.3 1.516.142 2.069-.41l1.72-1.721a.376.376 0 0 1 .531 0l2.193 2.193a.376.376 0 0 1 0 .532l-1.72 1.72a1.868 1.868 0 0 0-.411 2.068c.299.723.97 1.172 1.753 1.172h2.433c.207 0 .376.168.376.375zm-.386-4.445h-2.432a.908.908 0 0 1-.863-.576.909.909 0 0 1 .202-1.018l1.72-1.72a1.33 1.33 0 0 0 .392-.946c0-.358-.139-.694-.392-.947l-2.192-2.192c-.505-.506-1.387-.507-1.894 0l-1.719 1.72a.908.908 0 0 1-1.018.202.908.908 0 0 1-.576-.863v-2.432c0-.739-.6-1.339-1.339-1.339h-3.1c-.738 0-1.339.6-1.339 1.339v2.432a.908.908 0 0 1-.576.863.907.907 0 0 1-1.018-.203l-1.72-1.72c-.506-.506-1.388-.505-1.893 0l-2.192 2.193a1.33 1.33 0 0 0-.392.947c0 .357.139.693.392.947l1.72 1.719a.91.91 0 0 1 .202 1.018.907.907 0 0 1-.863.576h-2.432c-.739 0-1.339.6-1.339 1.339v3.1c0 .738.6 1.339 1.339 1.339h2.432c.39 0 .713.215.863.576a.909.909 0 0 1-.202 1.018l-1.72 1.72a1.33 1.33 0 0 0-.392.946c0 .358.139.694.392.947l2.192 2.192c.506.506 1.387.507 1.894 0l1.719-1.72a.908.908 0 0 1 1.018-.202c.36.15.576.472.576.863v2.432c0 .739.6 1.339 1.339 1.339h3.1c.738 0 1.338-.6 1.338-1.339v-2.432c0-.39.216-.713.577-.863a.908.908 0 0 1 1.018.202l1.719 1.72c.506.507 1.388.506 1.894 0l2.192-2.192a1.33 1.33 0 0 0 .392-.947c0-.357-.14-.693-.392-.947l-1.72-1.719a.91.91 0 0 1-.202-1.018.908.908 0 0 1 .863-.576h2.432c.739 0 1.339-.6 1.339-1.339v-3.1c0-.738-.6-1.339-1.339-1.339z"/><path id="51zpb" d="M337 752c-2.205 0-4-1.795-4-4s1.795-4 4-4 4 1.795 4 4-1.795 4-4 4zm0-9c-2.757 0-5 2.243-5 5s2.243 5 5 5 5-2.243 5-5-2.243-5-5-5z"/></defs><g><g transform="translate(-324 -735)"><g><g><use fill="#8d92b8" xlink:href="#51zpa"/></g><g><use fill="#8d92b8" xlink:href="#51zpb"/></g></g></g></g></svg>